<svg width="24" height="24" viewBox="0 0 24 24" fill="none" xmlns="http://www.w3.org/2000/svg">
<path fill-rule="evenodd" clip-rule="evenodd" d="M2.20001 3.49995C2.20001 3.05812 2.55818 2.69995 3.00001 2.69995H5.00001C5.36077 2.69995 5.6769 2.94141 5.77182 3.28946L6.56559 6.19995H21C21.2486 6.19995 21.483 6.31547 21.6344 6.51256C21.7858 6.70965 21.837 6.96593 21.773 7.20608L19.773 14.7061C19.6796 15.0563 19.3625 15.3 19 15.3H8.00001C7.63925 15.3 7.32312 15.0585 7.2282 14.7104L4.38898 4.29995H3.00001C2.55818 4.29995 2.20001 3.94178 2.20001 3.49995ZM7.00196 7.79995L8.61105 13.7H18.3854L19.9587 7.79995H7.00196ZM9.00001 17.8C8.33727 17.8 7.80001 18.3372 7.80001 19C7.80001 19.6627 8.33727 20.2 9.00001 20.2C9.66275 20.2 10.2 19.6627 10.2 19C10.2 18.3372 9.66275 17.8 9.00001 17.8ZM6.20001 19C6.20001 17.4536 7.45361 16.2 9.00001 16.2C10.5464 16.2 11.8 17.4536 11.8 19C11.8 20.5463 10.5464 21.8 9.00001 21.8C7.45361 21.8 6.20001 20.5463 6.20001 19ZM15.8 19C15.8 18.3372 16.3373 17.8 17 17.8C17.6628 17.8 18.2 18.3372 18.2 19C18.2 19.6627 17.6628 20.2 17 20.2C16.3373 20.2 15.8 19.6627 15.8 19ZM17 16.2C15.4536 16.2 14.2 17.4536 14.2 19C14.2 20.5463 15.4536 21.8 17 21.8C18.5464 21.8 19.8 20.5463 19.8 19C19.8 17.4536 18.5464 16.2 17 16.2Z" fill="#111111"/>
</svg>
