<svg width="24" height="24" viewBox="0 0 24 24" fill="none" xmlns="http://www.w3.org/2000/svg">
<path fill-rule="evenodd" clip-rule="evenodd" d="M1.90002 3.4999C1.90002 2.89239 2.39251 2.3999 3.00002 2.3999H5.00002C5.49607 2.3999 5.93075 2.73191 6.06126 3.21047L6.79475 5.8999H21C21.3418 5.8999 21.6641 6.05874 21.8723 6.32974C22.0805 6.60074 22.1509 6.95312 22.0629 7.28333L20.0629 14.7833C19.9345 15.2649 19.4984 15.5999 19 15.5999H8.00002C7.50398 15.5999 7.0693 15.2679 6.93878 14.7893L4.15985 4.5999H3.00002C2.39251 4.5999 1.90002 4.10742 1.90002 3.4999ZM7.39475 8.0999L8.8402 13.3999H18.1549L19.5683 8.0999H7.39475ZM6.20001 19C6.20001 17.4536 7.45361 16.2 9.00001 16.2C10.5464 16.2 11.8 17.4536 11.8 19C11.8 20.5463 10.5464 21.8 9.00001 21.8C7.45361 21.8 6.20001 20.5463 6.20001 19ZM17 16.2C15.4536 16.2 14.2 17.4536 14.2 19C14.2 20.5463 15.4536 21.8 17 21.8C18.5464 21.8 19.8 20.5463 19.8 19C19.8 17.4536 18.5464 16.2 17 16.2Z" fill="#111111"/>
</svg>
