<svg width="0" height="0" class="hidden">
  <symbol fill="none" xmlns="http://www.w3.org/2000/svg" viewBox="0 0 24 24" id="icon-arrow_down">
    <path fill-rule="evenodd" clip-rule="evenodd" d="M4.40981 6.89702C3.91105 7.33344 3.86051 8.09156 4.29692 8.59032L11.2969 16.5903C11.5248 16.8507 11.854 17.0001 12.2 17.0001C12.5461 17.0001 12.8752 16.8507 13.1031 16.5903L20.1031 8.59032C20.5395 8.09156 20.489 7.33344 19.9902 6.89702C19.4915 6.4606 18.7333 6.51115 18.2969 7.00991L12.2 13.9778L6.10311 7.00991C5.66669 6.51114 4.90857 6.4606 4.40981 6.89702Z" fill="#111111"></path>
  </symbol>
  <symbol fill="none" xmlns="http://www.w3.org/2000/svg" viewBox="0 0 24 24" id="icon-arrow_right">
    <path fill-rule="evenodd" clip-rule="evenodd" d="M7.09691 4.20986C7.53333 3.7111 8.29145 3.66055 8.79021 4.09697L16.7902 11.097C17.0506 11.3248 17.2 11.654 17.2 12.0001C17.2 12.3461 17.0506 12.6753 16.7902 12.9032L8.79021 19.9032C8.29145 20.3396 7.53333 20.289 7.09691 19.7903C6.66049 19.2915 6.71103 18.5334 7.2098 18.097L14.1777 12.0001L7.2098 5.90316C6.71103 5.46674 6.66049 4.70862 7.09691 4.20986Z" fill="#111111"></path>
  </symbol>
  <symbol fill="none" xmlns="http://www.w3.org/2000/svg" viewBox="0 0 12 12" id="icon-arrow_right-gray400">
    <path fill-rule="evenodd" clip-rule="evenodd" d="M4.49755 10.4951L3.50488 9.50406L7.01954 5.99512L3.50488 2.48617L4.49755 1.49512L9.00488 5.99512L4.49755 10.4951Z" fill="#878E9C"></path>
  </symbol>
  <symbol fill="none" xmlns="http://www.w3.org/2000/svg" viewBox="0 0 24 24" id="icon-arrow_up">
    <path fill-rule="evenodd" clip-rule="evenodd" d="M4.40981 16.7031C3.91105 16.2667 3.86051 15.5085 4.29692 15.0098L11.2969 7.00978C11.5248 6.74936 11.854 6.59998 12.2 6.59998C12.5461 6.59998 12.8752 6.74936 13.1031 7.00978L20.1031 15.0098C20.5395 15.5085 20.489 16.2667 19.9902 16.7031C19.4915 17.1395 18.7333 17.089 18.2969 16.5902L12.2 9.62229L6.10311 16.5902C5.66669 17.089 4.90857 17.1395 4.40981 16.7031Z" fill="#111111"></path>
  </symbol>
  <symbol fill="none" xmlns="http://www.w3.org/2000/svg" viewBox="0 0 24 24" id="icon-back">
    <path fill-rule="evenodd" clip-rule="evenodd" d="M12.7071 2.79289C13.0976 3.18342 13.0976 3.81658 12.7071 4.20711L5.91421 11H20C20.5523 11 21 11.4477 21 12C21 12.5523 20.5523 13 20 13H5.91421L12.7071 19.7929C13.0976 20.1834 13.0976 20.8166 12.7071 21.2071C12.3166 21.5976 11.6834 21.5976 11.2929 21.2071L2.79289 12.7071C2.40237 12.3166 2.40237 11.6834 2.79289 11.2929L11.2929 2.79289C11.6834 2.40237 12.3166 2.40237 12.7071 2.79289Z" fill="#111111"></path>
  </symbol>
  <symbol fill="none" xmlns="http://www.w3.org/2000/svg" viewBox="0 0 24 24" id="icon-bookmark-line">
    <path d="M16.1979 21.5189C15.8151 21.5189 15.4357 21.3956 15.1156 21.1539L12.1205 18.8932C12.0494 18.8397 11.9505 18.8397 11.8796 18.8932L8.8844 21.1539C8.3358 21.568 7.6125 21.6349 6.9976 21.3284C6.3823 21.022 6 20.4046 6 19.7172V3.8C6 2.8075 6.8075 2 7.8 2H16.2C17.1925 2 18 2.8075 18 3.8V19.7172C18 20.4046 17.6178 21.022 17.0024 21.3284C16.7462 21.456 16.4712 21.5189 16.1979 21.5189ZM7.8 3.6C7.6897 3.6 7.6 3.6897 7.6 3.8V19.7172C7.6 19.8195 7.6603 19.8711 7.7108 19.8963C7.7613 19.9215 7.8386 19.9385 7.9205 19.877L10.9156 17.6163C11.554 17.1342 12.4459 17.1343 13.0844 17.6163L16.0794 19.877C16.1611 19.9384 16.2384 19.9214 16.2891 19.8963C16.3397 19.8711 16.3999 19.8195 16.3999 19.7172V3.8C16.3999 3.6897 16.3102 3.6 16.1999 3.6H7.8Z" fill="#111111"></path>
  </symbol>
  <symbol fill="none" xmlns="http://www.w3.org/2000/svg" viewBox="0 0 24 24" id="icon-bookmark-solid">
    <path d="M15.1156 21.1539C15.4357 21.3956 15.8151 21.5189 16.1979 21.5189C16.4712 21.5189 16.7462 21.456 17.0024 21.3284C17.6178 21.022 18 20.4046 18 19.7172V3.8C18 2.8075 17.1925 2 16.2 2H7.8C6.8075 2 6 2.8075 6 3.8V19.7172C6 20.4046 6.3823 21.022 6.9976 21.3284C7.6125 21.6349 8.3358 21.568 8.8844 21.1539L11.8796 18.8932C11.9505 18.8397 12.0494 18.8397 12.1205 18.8932L15.1156 21.1539Z" fill="#111111"></path>
  </symbol>
  <symbol fill="none" xmlns="http://www.w3.org/2000/svg" viewBox="0 0 24 24" id="icon-cart-line">
    <path fill-rule="evenodd" clip-rule="evenodd" d="M2.20001 3.49995C2.20001 3.05812 2.55818 2.69995 3.00001 2.69995H5.00001C5.36077 2.69995 5.6769 2.94141 5.77182 3.28946L6.56559 6.19995H21C21.2486 6.19995 21.483 6.31547 21.6344 6.51256C21.7858 6.70965 21.837 6.96593 21.773 7.20608L19.773 14.7061C19.6796 15.0563 19.3625 15.3 19 15.3H8.00001C7.63925 15.3 7.32312 15.0585 7.2282 14.7104L4.38898 4.29995H3.00001C2.55818 4.29995 2.20001 3.94178 2.20001 3.49995ZM7.00196 7.79995L8.61105 13.7H18.3854L19.9587 7.79995H7.00196ZM9.00001 17.8C8.33727 17.8 7.80001 18.3372 7.80001 19C7.80001 19.6627 8.33727 20.2 9.00001 20.2C9.66275 20.2 10.2 19.6627 10.2 19C10.2 18.3372 9.66275 17.8 9.00001 17.8ZM6.20001 19C6.20001 17.4536 7.45361 16.2 9.00001 16.2C10.5464 16.2 11.8 17.4536 11.8 19C11.8 20.5463 10.5464 21.8 9.00001 21.8C7.45361 21.8 6.20001 20.5463 6.20001 19ZM15.8 19C15.8 18.3372 16.3373 17.8 17 17.8C17.6628 17.8 18.2 18.3372 18.2 19C18.2 19.6627 17.6628 20.2 17 20.2C16.3373 20.2 15.8 19.6627 15.8 19ZM17 16.2C15.4536 16.2 14.2 17.4536 14.2 19C14.2 20.5463 15.4536 21.8 17 21.8C18.5464 21.8 19.8 20.5463 19.8 19C19.8 17.4536 18.5464 16.2 17 16.2Z" fill="#111111"></path>
  </symbol>
  <symbol fill="none" xmlns="http://www.w3.org/2000/svg" viewBox="0 0 24 24" id="icon-cart-solid">
    <path fill-rule="evenodd" clip-rule="evenodd" d="M1.90002 3.4999C1.90002 2.89239 2.39251 2.3999 3.00002 2.3999H5.00002C5.49607 2.3999 5.93075 2.73191 6.06126 3.21047L6.79475 5.8999H21C21.3418 5.8999 21.6641 6.05874 21.8723 6.32974C22.0805 6.60074 22.1509 6.95312 22.0629 7.28333L20.0629 14.7833C19.9345 15.2649 19.4984 15.5999 19 15.5999H8.00002C7.50398 15.5999 7.0693 15.2679 6.93878 14.7893L4.15985 4.5999H3.00002C2.39251 4.5999 1.90002 4.10742 1.90002 3.4999ZM7.39475 8.0999L8.8402 13.3999H18.1549L19.5683 8.0999H7.39475ZM6.20001 19C6.20001 17.4536 7.45361 16.2 9.00001 16.2C10.5464 16.2 11.8 17.4536 11.8 19C11.8 20.5463 10.5464 21.8 9.00001 21.8C7.45361 21.8 6.20001 20.5463 6.20001 19ZM17 16.2C15.4536 16.2 14.2 17.4536 14.2 19C14.2 20.5463 15.4536 21.8 17 21.8C18.5464 21.8 19.8 20.5463 19.8 19C19.8 17.4536 18.5464 16.2 17 16.2Z" fill="#111111"></path>
  </symbol>
  <symbol fill="none" xmlns="http://www.w3.org/2000/svg" viewBox="0 0 24 24" id="icon-check">
    <path d="M9.698 18.251C9.391 18.251 9.084 18.134 8.849 17.9L3.351 12.402C2.882 11.933 2.882 11.174 3.351 10.705C3.82 10.236 4.579 10.236 5.048 10.705L9.698 15.355L18.951 6.10102C19.42 5.63202 20.18 5.63202 20.648 6.10102C21.116 6.57002 21.117 7.32902 20.648 7.79802L10.546 17.9C10.312 18.134 10.005 18.251 9.697 18.251H9.698Z" fill="#111111"></path>
  </symbol>
  <symbol fill="none" xmlns="http://www.w3.org/2000/svg" viewBox="0 0 24 24" id="icon-list">
    <rect x="2" y="5" width="20" height="2" rx="1" fill="#111111"></rect>
    <rect x="2" y="11" width="20" height="2" rx="1" fill="#111111"></rect>
    <rect x="2" y="17" width="20" height="2" rx="1" fill="#111111"></rect>
  </symbol>
  <symbol fill="none" xmlns="http://www.w3.org/2000/svg" viewBox="0 0 24 24" id="icon-map">
    <path fill-rule="evenodd" clip-rule="evenodd" d="M8.47427 2.14935C8.76908 1.96714 9.13722 1.95058 9.44721 2.10557L15.4472 5.10552C15.786 5.27492 16 5.62118 16 5.99995V21C16 21.3466 15.8205 21.6684 15.5257 21.8507C15.2309 22.0329 14.8628 22.0494 14.5528 21.8944L8.55279 18.8944C8.214 18.725 8 18.3788 8 18V3C8 2.65342 8.17945 2.33156 8.47427 2.14935ZM10 4.61802V17.382L14 19.382V6.61799L10 4.61802Z" fill="#111111"></path>
    <path fill-rule="evenodd" clip-rule="evenodd" d="M9.52573 2.14935C9.82055 2.33156 10 2.65342 10 3V18.1905C10 18.5785 9.7755 18.9315 9.42407 19.0961L3.42407 21.9056C3.11433 22.0507 2.75197 22.0274 2.46337 21.8438C2.17478 21.6603 2 21.342 2 21V6C2 5.62123 2.214 5.27497 2.55279 5.10557L8.55279 2.10557C8.86277 1.95058 9.23091 1.96714 9.52573 2.14935ZM4 6.61804V19.4275L8 17.5545V4.61804L4 6.61804Z" fill="#111111"></path>
    <path fill-rule="evenodd" clip-rule="evenodd" d="M21.5257 2.14935C21.8205 2.33156 22 2.65342 22 3V18C22 18.3788 21.786 18.725 21.4472 18.8944L15.4472 21.8944C15.1372 22.0494 14.7691 22.0329 14.4743 21.8507C14.1795 21.6684 14 21.3466 14 21V6C14 5.62123 14.214 5.27497 14.5528 5.10557L20.5528 2.10557C20.8628 1.95058 21.2309 1.96714 21.5257 2.14935ZM16 6.61804V19.382L20 17.382V4.61804L16 6.61804Z" fill="#111111"></path>
  </symbol>
  <symbol fill="none" xmlns="http://www.w3.org/2000/svg" viewBox="0 0 24 24" id="icon-minus">
    <path d="M6 11H18C18.5523 11 19 11.4477 19 12C19 12.5523 18.5523 13 18 13H6C5.44772 13 5 12.5523 5 12C5 11.4477 5.44772 11 6 11Z" fill="#111111"></path>
  </symbol>
  <symbol fill="none" xmlns="http://www.w3.org/2000/svg" viewBox="0 0 24 24" id="icon-search-line">
    <path fill-rule="evenodd" clip-rule="evenodd" d="M4 10C4 6.68629 6.68629 4 10 4C13.3137 4 16 6.68629 16 10C16 13.3137 13.3137 16 10 16C6.68629 16 4 13.3137 4 10ZM10 2C5.58172 2 2 5.58172 2 10C2 14.4183 5.58172 18 10 18C12.0292 18 13.8819 17.2445 15.2923 15.9995L20.6465 21.3537C21.037 21.7442 21.6701 21.7442 22.0607 21.3537C22.4512 20.9631 22.4512 20.33 22.0607 19.9395L16.6177 14.4965C17.4901 13.2151 18 11.6671 18 10C18 5.58172 14.4183 2 10 2Z" fill="#111111"></path>
  </symbol>
  <symbol fill="none" xmlns="http://www.w3.org/2000/svg" viewBox="0 0 24 24" id="icon-plus">
    <path fill-rule="evenodd" clip-rule="evenodd" d="M13 11V6C13 5.44772 12.5523 5 12 5C11.4477 5 11 5.44772 11 6V11H6C5.44772 11 5 11.4477 5 12C5 12.5523 5.44772 13 6 13H11V18C11 18.5523 11.4477 19 12 19C12.5523 19 13 18.5523 13 18V13H18C18.5523 13 19 12.5523 19 12C19 11.4477 18.5523 11 18 11H13Z" fill="#111111"></path>
  </symbol>
  <symbol fill="none" xmlns="http://www.w3.org/2000/svg" viewBox="0 0 24 24" id="icon-search-solid">
    <path fill-rule="evenodd" clip-rule="evenodd" d="M4.5 10C4.5 6.96243 6.96243 4.5 10 4.5C13.0376 4.5 15.5 6.96243 15.5 10C15.5 13.0376 13.0376 15.5 10 15.5C6.96243 15.5 4.5 13.0376 4.5 10ZM10 1.5C5.30558 1.5 1.5 5.30558 1.5 10C1.5 14.6944 5.30558 18.5 10 18.5C11.9869 18.5 13.8146 17.8183 15.2619 16.676L20.2929 21.707C20.8787 22.2928 21.8284 22.2928 22.4142 21.707C23 21.1212 23 20.1715 22.4142 19.5857L17.2568 14.4283C18.0455 13.1386 18.5 11.6224 18.5 10C18.5 5.30558 14.6944 1.5 10 1.5Z" fill="#111111"></path>
  </symbol>
  <symbol fill="none" xmlns="http://www.w3.org/2000/svg" viewBox="0 0 24 24" id="icon-spot">
    <path fill-rule="evenodd" clip-rule="evenodd" d="M18 16.6412C18 16.6412 21 12.5739 21 9.83697C21 4.95762 16.9694 1 12 1C7.03063 1 3 4.95762 3 9.83697C3 12.5721 6 16.6412 6 16.6412L11.164 23.5834C11.5766 24.1389 12.4216 24.1389 12.8342 23.5834L17.9982 16.6412H18ZM16.7687 15.6133C16.7834 15.5927 16.8007 15.5683 16.8205 15.5402C16.895 15.4343 17.0038 15.277 17.1353 15.0786C17.3995 14.6802 17.7504 14.1242 18.0992 13.4923C18.8449 12.141 19.4 10.7583 19.4 9.83697C19.4 5.86872 16.1134 2.6 12 2.6C7.88659 2.6 4.6 5.86872 4.6 9.83697C4.6 10.7573 5.155 12.14 5.90087 13.4917C6.24967 14.1238 6.60058 14.68 6.86479 15.0785C6.99638 15.277 7.10517 15.4344 7.17971 15.5404C7.21696 15.5933 7.24556 15.6333 7.26408 15.659L7.28409 15.6866L7.28806 15.692L11.9991 22.025L16.7687 15.6133Z" fill="#111111"></path>
    <circle cx="12" cy="9" r="2" fill="#111111"></circle>
  </symbol>
  <symbol fill="none" xmlns="http://www.w3.org/2000/svg" viewBox="0 0 24 24" id="icon-spot-white">
    <path fill-rule="evenodd" clip-rule="evenodd" d="M18 16.6412C18 16.6412 21 12.5739 21 9.83697C21 4.95762 16.9694 1 12 1C7.03063 1 3 4.95762 3 9.83697C3 12.5721 6 16.6412 6 16.6412L11.164 23.5834C11.5766 24.1389 12.4216 24.1389 12.8342 23.5834L17.9982 16.6412H18ZM16.7687 15.6133C16.7834 15.5927 16.8007 15.5683 16.8205 15.5402C16.895 15.4343 17.0038 15.277 17.1353 15.0786C17.3995 14.6802 17.7504 14.1242 18.0992 13.4923C18.8449 12.141 19.4 10.7583 19.4 9.83697C19.4 5.86872 16.1134 2.6 12 2.6C7.88659 2.6 4.6 5.86872 4.6 9.83697C4.6 10.7573 5.155 12.14 5.90087 13.4917C6.24967 14.1238 6.60058 14.68 6.86479 15.0785C6.99638 15.277 7.10517 15.4344 7.17971 15.5404C7.21696 15.5933 7.24556 15.6333 7.26408 15.659L7.28409 15.6866L7.28806 15.692L11.9991 22.025L16.7687 15.6133Z" fill="#ffffff"></path>
    <circle cx="12" cy="9" r="2" fill="#ffffff"></circle>
  </symbol>
</svg>