<svg width="0" height="0" class="hidden">
  <symbol fill="none" xmlns="http://www.w3.org/2000/svg" viewBox="0 0 12 12" id="icon_arrowRight">
    <path fill-rule="evenodd" clip-rule="evenodd" d="M4.49755 10.4951L3.50488 9.50406L7.01954 5.99512L3.50488 2.48617L4.49755 1.49512L9.00488 5.99512L4.49755 10.4951Z" fill="#111111"></path>
  </symbol>
  <symbol fill="none" xmlns="http://www.w3.org/2000/svg" viewBox="0 0 24 24" id="icon_check">
    <path d="M9.698 18.251C9.391 18.251 9.084 18.134 8.849 17.9L3.351 12.402C2.882 11.933 2.882 11.174 3.351 10.705C3.82 10.236 4.579 10.236 5.048 10.705L9.698 15.355L18.951 6.10102C19.42 5.63202 20.18 5.63202 20.648 6.10102C21.116 6.57002 21.117 7.32902 20.648 7.79802L10.546 17.9C10.312 18.134 10.005 18.251 9.697 18.251H9.698Z" fill="#111111"></path>
  </symbol>
  <symbol fill="none" xmlns="http://www.w3.org/2000/svg" viewBox="0 0 24 24" id="icon_minus">
    <path d="M6 11H18C18.5523 11 19 11.4477 19 12C19 12.5523 18.5523 13 18 13H6C5.44772 13 5 12.5523 5 12C5 11.4477 5.44772 11 6 11Z" fill="#111111"></path>
  </symbol>
  <symbol fill="none" xmlns="http://www.w3.org/2000/svg" viewBox="0 0 24 24" id="icon_plus">
    <path fill-rule="evenodd" clip-rule="evenodd" d="M13 11V6C13 5.44772 12.5523 5 12 5C11.4477 5 11 5.44772 11 6V11H6C5.44772 11 5 11.4477 5 12C5 12.5523 5.44772 13 6 13H11V18C11 18.5523 11.4477 19 12 19C12.5523 19 13 18.5523 13 18V13H18C18.5523 13 19 12.5523 19 12C19 11.4477 18.5523 11 18 11H13Z" fill="#111111"></path>
  </symbol>
  <symbol fill="none" xmlns="http://www.w3.org/2000/svg" viewBox="0 0 24 24" id="icon_spot">
    <path fill-rule="evenodd" clip-rule="evenodd" d="M18 16.6412C18 16.6412 21 12.5739 21 9.83697C21 4.95762 16.9694 1 12 1C7.03063 1 3 4.95762 3 9.83697C3 12.5721 6 16.6412 6 16.6412L11.164 23.5834C11.5766 24.1389 12.4216 24.1389 12.8342 23.5834L17.9982 16.6412H18ZM16.7687 15.6133C16.7834 15.5927 16.8007 15.5683 16.8205 15.5402C16.895 15.4343 17.0038 15.277 17.1353 15.0786C17.3995 14.6802 17.7504 14.1242 18.0992 13.4923C18.8449 12.141 19.4 10.7583 19.4 9.83697C19.4 5.86872 16.1134 2.6 12 2.6C7.88659 2.6 4.6 5.86872 4.6 9.83697C4.6 10.7573 5.155 12.14 5.90087 13.4917C6.24967 14.1238 6.60058 14.68 6.86479 15.0785C6.99638 15.277 7.10517 15.4344 7.17971 15.5404C7.21696 15.5933 7.24556 15.6333 7.26408 15.659L7.28409 15.6866L7.28806 15.692L11.9991 22.025L16.7687 15.6133Z" fill="#111111"></path>
    <circle cx="12" cy="9" r="2" fill="#111111"></circle>
  </symbol>
</svg>