<svg width="44" height="59" viewBox="0 0 44 59" fill="none" xmlns="http://www.w3.org/2000/svg">
<g clip-path="url(#clip0_219_3908)">
<g filter="url(#filter0_f_219_3908)">
<ellipse cx="22" cy="50.5" rx="16" ry="2.5" fill="url(#paint0_radial_219_3908)"/>
</g>
<path d="M9.19485 33.8754C9.19499 33.8756 9.19511 33.8758 10 33.2823L9.1951 33.8758L9.19772 33.8793L15.1975 41.9429L15.1977 41.9431L19.5251 47.763C20.7502 49.4123 23.2462 49.4123 24.4713 47.763L28.7987 41.9431L28.7989 41.9429L34.4988 34.2823H34.505L34.8048 33.8759L34 33.2823C34.8048 33.8759 34.8049 33.8758 34.805 33.8756L34.8054 33.875L34.8066 33.8734L34.8106 33.868L34.825 33.8483L34.8784 33.7747C34.9245 33.7108 34.9912 33.6176 35.0756 33.4976C35.2443 33.2579 35.484 32.9111 35.7709 32.4785C36.344 31.6143 37.1091 30.4026 37.8755 29.014C39.3782 26.2913 41 22.6903 41 19.6739C41 9.34579 32.4737 1 22 1C11.5263 1 3 9.34579 3 19.6739C3 22.6886 4.62188 26.2896 6.12445 29.0126C6.89083 30.4015 7.65589 31.6134 8.22904 32.4779C8.51594 32.9106 8.75556 33.2575 8.9243 33.4973C9.00869 33.6173 9.07541 33.7106 9.12151 33.7745L9.17486 33.8481L9.18925 33.8678L9.19327 33.8733L9.19446 33.8749L9.19485 33.8754Z" fill="#E5A637" stroke="#D9992B" stroke-width="2" stroke-miterlimit="10"/>
<path d="M16.2979 21.9375H14.582V20.126H16.2979V21.9375ZM21.0967 20.3857H9.79688V19.1143H21.0967V20.3857ZM16.291 15.3066H14.5615V13.8027H16.291V15.3066ZM15.9834 15.6279C15.9834 16.2295 15.7829 16.7559 15.3818 17.207C14.9808 17.6582 14.3838 18.0205 13.5908 18.2939C12.8024 18.5628 11.8431 18.7269 10.7129 18.7861L10.2412 17.501C11.1982 17.4554 11.9912 17.3438 12.6201 17.166C13.2536 16.9837 13.7161 16.7604 14.0078 16.4961C14.304 16.2318 14.4521 15.9424 14.4521 15.6279V15.375H15.9834V15.6279ZM16.4072 15.6279C16.4027 15.9424 16.5485 16.2318 16.8447 16.4961C17.141 16.7604 17.6058 16.9837 18.2393 17.166C18.8727 17.3438 19.6725 17.4554 20.6387 17.501L20.1328 18.7861C19.0072 18.7269 18.0501 18.5605 17.2617 18.2871C16.4779 18.0137 15.8831 17.6536 15.4775 17.207C15.0719 16.7559 14.8714 16.2295 14.876 15.6279V15.375H16.4072V15.6279ZM20.0234 16.0791H10.8633V14.7871H20.0234V16.0791ZM19.7363 24.2002H12.8047V25.4102H11.0889V23.0312H18.0137V22.4229H11.082V21.1719H19.7363V24.2002ZM20.0645 26.1689H11.0889V24.8906H20.0645V26.1689ZM23.9678 15.8535H26.5176V14.3701H28.2676V19.8047H22.2383V14.3701H23.9678V15.8535ZM26.5176 18.4307V17.1592H23.9678V18.4307H26.5176ZM31.7402 20.1465H29.9971V13.8027H31.7402V20.1465ZM33.4219 17.6514H31.0156V16.2363H33.4219V17.6514ZM31.7402 23.9951H25.2256V25.4854H23.5098V22.7441H30.0039V21.9648H23.4893V20.6182H31.7402V23.9951ZM32.1025 26.1689H23.5098V24.8018H32.1025V26.1689Z" fill="white"/>
</g>
<defs>
<filter id="filter0_f_219_3908" x="0" y="42" width="44" height="17" filterUnits="userSpaceOnUse" color-interpolation-filters="sRGB">
<feFlood flood-opacity="0" result="BackgroundImageFix"/>
<feBlend mode="normal" in="SourceGraphic" in2="BackgroundImageFix" result="shape"/>
<feGaussianBlur stdDeviation="3" result="effect1_foregroundBlur_219_3908"/>
</filter>
<radialGradient id="paint0_radial_219_3908" cx="0" cy="0" r="1" gradientUnits="userSpaceOnUse" gradientTransform="translate(23.1319 49.9855) rotate(-134.554) scale(5.92698 398.433)">
<stop stop-opacity="0.42"/>
<stop offset="1" stop-opacity="0"/>
</radialGradient>
<clipPath id="clip0_219_3908">
<rect width="44" height="59" fill="white"/>
</clipPath>
</defs>
</svg>
