<svg width="44" height="59" viewBox="0 0 44 59" fill="none" xmlns="http://www.w3.org/2000/svg">
<g clip-path="url(#clip0_219_3934)">
<g filter="url(#filter0_f_219_3934)">
<ellipse cx="22" cy="50.5" rx="16" ry="2.5" fill="url(#paint0_radial_219_3934)"/>
</g>
<path d="M9.19485 33.8754C9.19499 33.8756 9.19511 33.8758 10 33.2823L9.1951 33.8758L9.19772 33.8793L15.1975 41.9429L15.1977 41.9431L19.5251 47.763C20.7502 49.4123 23.2462 49.4123 24.4713 47.763L28.7987 41.9431L28.7989 41.9429L34.4988 34.2823H34.505L34.8048 33.8759L34 33.2823C34.8048 33.8759 34.8049 33.8758 34.805 33.8756L34.8054 33.875L34.8066 33.8734L34.8106 33.868L34.825 33.8483L34.8784 33.7747C34.9245 33.7108 34.9912 33.6176 35.0756 33.4976C35.2443 33.2579 35.484 32.9111 35.7709 32.4785C36.344 31.6143 37.1091 30.4026 37.8755 29.014C39.3782 26.2913 41 22.6903 41 19.6739C41 9.34579 32.4737 1 22 1C11.5263 1 3 9.34579 3 19.6739C3 22.6886 4.62188 26.2896 6.12445 29.0126C6.89083 30.4015 7.65589 31.6134 8.22904 32.4779C8.51594 32.9106 8.75556 33.2575 8.9243 33.4973C9.00869 33.6173 9.07541 33.7106 9.12151 33.7745L9.17486 33.8481L9.18925 33.8678L9.19327 33.8733L9.19446 33.8749L9.19485 33.8754Z" fill="#4A88E5" stroke="#2C6AC7" stroke-width="2" stroke-miterlimit="10"/>
<path d="M19.9072 20.7686H11.1162V19.3809H19.9072V20.7686ZM21.1514 24.8496H9.77637V23.4209H21.1514V24.8496ZM16.2979 23.8789H14.582V20.0166H16.2979V23.8789ZM19.8184 16.0791H12.8594V20.0098H11.1162V14.6982H19.8184V16.0791ZM26.1143 16.4893C26.1143 17.2321 25.9821 17.9225 25.7178 18.5605C25.458 19.194 25.0661 19.7432 24.542 20.208C24.0179 20.6729 23.3753 21.0146 22.6143 21.2334L21.7666 19.873C22.4183 19.6953 22.9652 19.431 23.4072 19.0801C23.8493 18.7292 24.1774 18.3327 24.3916 17.8906C24.6104 17.444 24.7197 16.9769 24.7197 16.4893V16.0176H26.1143V16.4893ZM26.4492 16.4893C26.4492 16.9359 26.554 17.3688 26.7637 17.7881C26.9779 18.2028 27.3037 18.5765 27.7412 18.9092C28.1787 19.2373 28.7233 19.488 29.375 19.6611L28.5684 21.042C27.7982 20.8278 27.1488 20.4951 26.6201 20.0439C26.0915 19.5882 25.695 19.0573 25.4307 18.4512C25.1663 17.8405 25.0342 17.1865 25.0342 16.4893V16.0176H26.4492V16.4893ZM28.958 16.4961H22.2109V15.1221H28.958V16.4961ZM26.4697 15.7441H24.7197V13.7822H26.4697V15.7441ZM31.7402 21.4453H29.9971V13.8027H31.7402V21.4453ZM33.4219 18.3418H31.248V16.8789H33.4219V18.3418ZM31.7402 26.2715H29.9971V23.3525H23.3662V21.9512H31.7402V26.2715Z" fill="white"/>
</g>
<defs>
<filter id="filter0_f_219_3934" x="0" y="42" width="44" height="17" filterUnits="userSpaceOnUse" color-interpolation-filters="sRGB">
<feFlood flood-opacity="0" result="BackgroundImageFix"/>
<feBlend mode="normal" in="SourceGraphic" in2="BackgroundImageFix" result="shape"/>
<feGaussianBlur stdDeviation="3" result="effect1_foregroundBlur_219_3934"/>
</filter>
<radialGradient id="paint0_radial_219_3934" cx="0" cy="0" r="1" gradientUnits="userSpaceOnUse" gradientTransform="translate(23.1319 49.9855) rotate(-134.554) scale(5.92698 398.433)">
<stop stop-opacity="0.42"/>
<stop offset="1" stop-opacity="0"/>
</radialGradient>
<clipPath id="clip0_219_3934">
<rect width="44" height="59" fill="white"/>
</clipPath>
</defs>
</svg>
