<svg width="44" height="59" viewBox="0 0 44 59" fill="none" xmlns="http://www.w3.org/2000/svg">
<g clip-path="url(#clip0_219_3944)">
<g filter="url(#filter0_f_219_3944)">
<ellipse cx="22" cy="50.5" rx="16" ry="2.5" fill="url(#paint0_radial_219_3944)"/>
</g>
<path d="M9.19485 33.8754C9.19499 33.8756 9.19511 33.8758 10 33.2823L9.1951 33.8758L9.19772 33.8793L15.1975 41.9429L15.1977 41.9431L19.5251 47.763C20.7502 49.4123 23.2462 49.4123 24.4713 47.763L28.7987 41.9431L28.7989 41.9429L34.4988 34.2823H34.505L34.8048 33.8759L34 33.2823C34.8048 33.8759 34.8049 33.8758 34.805 33.8756L34.8054 33.875L34.8066 33.8734L34.8106 33.868L34.825 33.8483L34.8784 33.7747C34.9245 33.7108 34.9912 33.6176 35.0756 33.4976C35.2443 33.2579 35.484 32.9111 35.7709 32.4785C36.344 31.6143 37.1091 30.4026 37.8755 29.014C39.3782 26.2913 41 22.6903 41 19.6739C41 9.34579 32.4737 1 22 1C11.5263 1 3 9.34579 3 19.6739C3 22.6886 4.62188 26.2896 6.12445 29.0126C6.89083 30.4015 7.65589 31.6134 8.22904 32.4779C8.51594 32.9106 8.75556 33.2575 8.9243 33.4973C9.00869 33.6173 9.07541 33.7106 9.12151 33.7745L9.17486 33.8481L9.18925 33.8678L9.19327 33.8733L9.19446 33.8749L9.19485 33.8754Z" fill="#DD6644" stroke="#AB5443" stroke-width="2" stroke-miterlimit="10"/>
<circle cx="22" cy="19" r="6" fill="white"/>
</g>
<defs>
<filter id="filter0_f_219_3944" x="0" y="42" width="44" height="17" filterUnits="userSpaceOnUse" color-interpolation-filters="sRGB">
<feFlood flood-opacity="0" result="BackgroundImageFix"/>
<feBlend mode="normal" in="SourceGraphic" in2="BackgroundImageFix" result="shape"/>
<feGaussianBlur stdDeviation="3" result="effect1_foregroundBlur_219_3944"/>
</filter>
<radialGradient id="paint0_radial_219_3944" cx="0" cy="0" r="1" gradientUnits="userSpaceOnUse" gradientTransform="translate(23.1319 49.9855) rotate(-134.554) scale(5.92698 398.433)">
<stop stop-opacity="0.42"/>
<stop offset="1" stop-opacity="0"/>
</radialGradient>
<clipPath id="clip0_219_3944">
<rect width="44" height="59" fill="white"/>
</clipPath>
</defs>
</svg>
